<svg role="img" viewBox="0 0 24 24" xmlns="http://www.w3.org/2000/svg" fill="#38BDF8">
<title>REST APIs</title>
<path d="M4 3a2 2 0 0 0-2 2v3a2 2 0 0 0 2 2h.5a.5.5 0 0 1 0 1H4a2 2 0 0 0-2 2v3a2 2 0 0 0 2 2h4a2 2 0 0 0 2-2v-3a2 2 0 0 0-2-2h-.5a.5.5 0 0 1 0-1H8a2 2 0 0 0 2-2V5a2 2 0 0 0-2-2H4Zm12 0a2 2 0 0 0-2 2v3a2 2 0 0 0 2 2h4a2 2 0 0 0 2-2V5a2 2 0 0 0-2-2h-4Zm-1.5 9A2.5 2.5 0 0 0 12 14.5v4A2.5 2.5 0 0 0 14.5 21h5a2.5 2.5 0 0 0 2.5-2.5v-4a2.5 2.5 0 0 0-2.5-2.5h-5Zm.75 2.25h3.5a.75.75 0 0 1 0 1.5h-3.5a.75.75 0 0 1 0-1.5Zm0 3h3.5a.75.75 0 0 1 0 1.5h-3.5a.75.75 0 0 1 0-1.5Z"/>
</svg>
