<svg role="img" viewBox="0 0 24 24" xmlns="http://www.w3.org/2000/svg" fill="#A78BFA">
<title>RAG and Vector Databases</title>
<path d="M12 2C7.58 2 4 3.35 4 5v14c0 1.65 3.58 3 8 3s8-1.35 8-3V5c0-1.65-3.58-3-8-3Zm0 2c3.87 0 6 1.02 6 1.5S15.87 7 12 7 6 5.98 6 5.5 8.13 4 12 4Zm6 4.29V10c0 .48-2.13 1.5-6 1.5S6 10.48 6 10V8.29c1.36.75 3.6 1.21 6 1.21s4.64-.46 6-1.21Zm0 4.5V14.5c0 .48-2.13 1.5-6 1.5s-6-1.02-6-1.5v-1.71c1.36.75 3.6 1.21 6 1.21s4.64-.46 6-1.21Zm0 4.5V17c0 .48-2.13 1.5-6 1.5S6 17.48 6 17v-1.71c1.36.75 3.6 1.21 6 1.21s4.64-.46 6-1.21Z"/>
</svg>
